<svg xmlns="http://www.w3.org/2000/svg" width="388000.03" height="370800.02" viewBox="0 0 102.66 98.11">
  <g fill="#0080c0">
    <path d="M41.8.25c-9.45 1.16-19.12 5.92-26.77 13.2-4.16 3.9-7.2 8.07-9.9 13.54C1.97 33.26.6 38.3.27 44.97l-.1 2.12H27.7l.1-1.42c.25-4.26 2.4-8.5 6.07-12.17 3-2.95 5.7-4.7 9.13-5.88l2.33-.77L74 26.8h28.66V0L72.78.04C56.3.07 42.4.18 41.8.24zM75.32 51.22c-.07.25-.32 1.5-.53 2.72-1.2 6.88-6.85 13.4-14.12 16.37l-1.94.78-29.28.18-29.28.18-.1 13.33L0 98.1l31.47-.1 31.5-.1 3.4-.96c20.34-5.75 35.3-23.77 36-43.5l.1-2.46-13.5-.1c-10.62-.08-13.5 0-13.65.34z"/>
  </g>
</svg>