<?xml version="1.0" encoding="UTF-8" standalone="no"?>
<!-- Created with Inkscape (http://www.inkscape.org/) -->

<svg
   xmlns:dc="http://purl.org/dc/elements/1.1/"
   xmlns:cc="http://creativecommons.org/ns#"
   xmlns:rdf="http://www.w3.org/1999/02/22-rdf-syntax-ns#"
   xmlns:svg="http://www.w3.org/2000/svg"
   xmlns="http://www.w3.org/2000/svg"
   xmlns:sodipodi="http://sodipodi.sourceforge.net/DTD/sodipodi-0.dtd"
   xmlns:inkscape="http://www.inkscape.org/namespaces/inkscape"
   width="102.65834mm"
   height="98.107506mm"
   viewBox="0 0 102.65834 98.107506"
   version="1.1"
   id="svg856"
   inkscape:version="0.92.2 (5c3e80d, 2017-08-06)"
   sodipodi:docname="susi_icon.svg">
  <defs
     id="defs850" />
  <sodipodi:namedview
     id="base"
     pagecolor="#ffffff"
     bordercolor="#666666"
     borderopacity="1.0"
     inkscape:pageopacity="0.0"
     inkscape:pageshadow="2"
     inkscape:zoom="1"
     inkscape:cx="587.14288"
     inkscape:cy="41.400011"
     inkscape:document-units="px"
     inkscape:current-layer="layer1"
     showgrid="false"
     showborder="false"
     fit-margin-top="0"
     fit-margin-left="0"
     fit-margin-right="0"
     fit-margin-bottom="0"
     inkscape:window-width="1920"
     inkscape:window-height="1001"
     inkscape:window-x="-9"
     inkscape:window-y="-9"
     inkscape:window-maximized="1" />
  <metadata
     id="metadata853">
    <rdf:RDF>
      <cc:Work
         rdf:about="">
        <dc:format>image/svg+xml</dc:format>
        <dc:type
           rdf:resource="http://purl.org/dc/dcmitype/StillImage" />
        <dc:title></dc:title>
      </cc:Work>
    </rdf:RDF>
  </metadata>
  <g
     inkscape:label="Layer 1"
     inkscape:groupmode="layer"
     id="layer1"
     transform="translate(185.20834,-61.679581)">
    <g
       id="g837"
       transform="matrix(0.3527778,0,0,0.3527778,-188.38334,59.210136)">
      <path
         d="M 127.5,7.7 C 100.7,11 73.3,24.5 51.6,45.1 39.8,56.2 31.2,68 23.5,83.5 c -8.9,17.8 -12.8,32.1 -13.7,51 l -0.3,6 h 39 39 l 0.3,-4 c 0.7,-12.1 6.8,-24.1 17.2,-34.5 8.5,-8.4 16.2,-13.4 25.9,-16.7 l 6.6,-2.2 81.3,-0.1 H 300 V 45 7 l -84.7,0.1 c -46.7,0.1 -86.1,0.4 -87.8,0.6 z"
         id="path2"
         inkscape:connector-curvature="0"
         style="fill:#0080c0;stroke:none;stroke-width:0.1" />
      <path
         d="m 222.5,152.2 c -0.2,0.7 -0.9,4.2 -1.5,7.7 -3.4,19.5 -19.4,38 -40,46.4 l -5.5,2.2 -83,0.5 -83,0.5 -0.3,37.8 -0.2,37.8 89.2,-0.3 89.3,-0.3 9.6,-2.7 c 57.7,-16.3 100.1,-67.4 102.1,-123.3 l 0.3,-7 -38.3,-0.3 c -30.1,-0.2 -38.3,0 -38.7,1 z"
         id="path10"
         inkscape:connector-curvature="0"
         style="fill:#0080c0;stroke:none;stroke-width:0.1" />
    </g>
  </g>
</svg>
