<svg xmlns="http://www.w3.org/2000/svg" width="100" height="100" style=""><rect id="backgroundrect" width="100%" height="100%" x="0" y="0" fill="none" stroke="none" style="" class="selected"/>
  
<g class="currentLayer" style=""><title>Layer 1</title><g fill="#0080c0" id="svg_1" class="">
    <path d="M40.88107490539551,2.6095566749572754 c-9.155435562133789,1.1238417625427246 -18.52401351928711,5.735468864440918 -25.935556411743164,12.788544654846191 c-4.03032922744751,3.7784337997436523 -6.975569725036621,7.818450927734375 -9.591408729553223,13.11794662475586 C2.292606472969055,34.590606689453125 0.9653098881244659,39.473506927490234 0.6455963850021362,45.93559646606445 l-0.09688291698694229,2.053917646408081 H27.220582962036133 l0.09688291698694229,-1.3757373094558716 c0.24220728874206543,-4.1272125244140625 2.3251900672912598,-8.235048294067383 5.88079309463501,-11.790651321411133 c2.906487464904785,-2.858046054840088 5.5223259925842285,-4.553496837615967 8.845410346984863,-5.696715354919434 l2.2573719024658203,-0.7459984421730042 L72.07736778259277,28.33197021484375 h27.766643524169922 V2.367349147796631 L70.8953914642334,2.4061031341552734 C54.92909812927246,2.435166835784912 41.46237373352051,2.541738510131836 40.88107490539551,2.599869728088379 zM73.35622215270996,51.99077606201172 c-0.0678180381655693,0.24220728874206543 -0.31002533435821533,1.4532437324523926 -0.5134794116020203,2.6352152824401855 c-1.1625950336456299,6.665544509887695 -6.63647985458374,12.98231029510498 -13.6798677444458,15.859734535217285 l-1.8795286417007446,0.7556867003440857 l-28.367319107055664,0.17438925802707672 l-28.367319107055664,0.17438925802707672 l-0.09688291698694229,12.9144926071167 L0.3840125799179077,97.40949249267578 l30.48905372619629,-0.09688291698694229 l30.518117904663086,-0.09688291698694229 l3.2940192222595215,-0.9300759434700012 c19.70598602294922,-5.570767402648926 34.199668884277344,-23.029069900512695 34.87784957885742,-42.14406967163086 l0.09688291698694229,-2.383319854736328 l-13.079193115234375,-0.09688291698694229 c-10.288965225219727,-0.07750633358955383 -13.079193115234375,0 -13.224517822265625,0.3294019103050232 z" id="svg_2"/>
  </g></g></svg>