<svg xmlns="http://www.w3.org/2000/svg" xmlns:xlink="http://www.w3.org/1999/xlink" viewBox="0 0 50 50" version="1.1" width="50" height="50" style="fill: rgb(236, 240, 241);">
<g id="surface1">
<path style=" " d="M 21.09375 0 L 20.96875 0.84375 L 19.90625 7.40625 C 18.59375 7.78125 17.332031 8.261719 16.15625 8.90625 L 10.75 5.0625 L 10.0625 4.5625 L 4.625 10 L 5.125 10.6875 L 8.90625 16.125 C 8.257813 17.300781 7.761719 18.558594 7.375 19.875 L 0.84375 20.96875 L 0 21.09375 L 0 28.78125 L 0.8125 28.9375 L 7.34375 30.09375 C 7.726563 31.410156 8.253906 32.664063 8.90625 33.84375 L 5.0625 39.25 L 4.5625 39.9375 L 10 45.375 L 10.6875 44.875 L 16.09375 41.0625 C 17.277344 41.71875 18.550781 42.210938 19.875 42.59375 L 20.96875 49.15625 L 21.09375 50 L 28.78125 50 L 28.9375 49.1875 L 30.09375 42.625 C 31.410156 42.238281 32.636719 41.683594 33.8125 41.03125 L 39.3125 44.875 L 40 45.375 L 45.4375 39.9375 L 44.9375 39.21875 L 41.03125 33.8125 C 41.671875 32.648438 42.1875 31.394531 42.5625 30.09375 L 49.1875 28.9375 L 50 28.78125 L 50 21.09375 L 49.15625 20.96875 L 42.59375 19.90625 C 42.214844 18.597656 41.675781 17.359375 41.03125 16.1875 L 44.875 10.6875 L 45.375 10 L 39.9375 4.5625 L 39.21875 5.0625 L 33.84375 8.9375 C 32.667969 8.285156 31.410156 7.789063 30.09375 7.40625 L 28.9375 0.8125 L 28.78125 0 Z M 22.8125 2 L 27.125 2 L 28.21875 8.28125 L 28.3125 8.90625 L 28.96875 9.0625 C 30.574219 9.460938 32.0625 10.105469 33.4375 10.9375 L 34 11.28125 L 34.53125 10.90625 L 39.6875 7.1875 L 42.75 10.21875 L 39.09375 15.46875 L 38.71875 16 L 39.03125 16.5625 C 39.855469 17.933594 40.476563 19.4375 40.875 21.03125 L 41.0625 21.65625 L 41.6875 21.78125 L 48 22.8125 L 48 27.125 L 41.6875 28.21875 L 41.03125 28.34375 L 40.875 28.96875 C 40.480469 30.5625 39.855469 32.066406 39.03125 33.4375 L 38.71875 34 L 39.09375 34.53125 L 42.8125 39.71875 L 39.78125 42.75 L 34.53125 39.09375 L 34 38.71875 L 33.4375 39.0625 C 32.070313 39.894531 30.566406 40.53125 28.96875 40.9375 L 28.34375 41.09375 L 28.21875 41.71875 L 27.125 48 L 22.78125 48 L 21.75 41.75 L 21.65625 41.09375 L 21 40.9375 C 19.394531 40.539063 17.882813 39.925781 16.5 39.09375 L 15.96875 38.75 L 15.40625 39.125 L 10.21875 42.75 L 7.1875 39.6875 L 10.84375 34.5625 L 11.21875 34.03125 L 10.90625 33.46875 C 10.066406 32.082031 9.402344 30.582031 9 28.96875 L 8.84375 28.34375 L 8.21875 28.21875 L 2 27.125 L 2 22.8125 L 8.21875 21.78125 L 8.875 21.65625 L 9.03125 21.03125 C 9.4375 19.414063 10.070313 17.886719 10.90625 16.5 L 11.25 15.9375 L 10.875 15.40625 L 7.25 10.21875 L 10.28125 7.1875 L 15.4375 10.84375 L 15.96875 11.25 L 16.53125 10.90625 C 17.910156 10.078125 19.425781 9.457031 21.03125 9.0625 L 21.6875 8.90625 L 21.78125 8.25 Z M 25 16 C 20.042969 16 16 20.042969 16 25 C 16 29.957031 20.042969 34 25 34 C 29.957031 34 34 29.957031 34 25 C 34 20.042969 29.957031 16 25 16 Z M 25 18 C 28.878906 18 32 21.121094 32 25 C 32 28.878906 28.878906 32 25 32 C 21.121094 32 18 28.878906 18 25 C 18 21.121094 21.121094 18 25 18 Z "/>
</g>
</svg>